<svg width="92" height="40" viewBox="0 0 92 40" fill="none" xmlns="http://www.w3.org/2000/svg">
<rect width="92" height="40" rx="4" fill="#2A79CC"/>
<path d="M26.844 18.924H30.18V15.504H32.136V24H30.18V20.688H26.844V24H24.888V15.504H26.844V18.924ZM35.6514 22.596L35.1354 24H33.0234L36.3714 15.504H38.4594L41.7594 24H39.6354L39.1314 22.596H35.6514ZM36.2514 20.844H38.5314C38.3474 20.308 38.1594 19.776 37.9674 19.248C37.7834 18.712 37.5954 18.176 37.4034 17.64L36.2514 20.844ZM46.4931 15.06C45.8131 15.06 45.2571 14.896 44.8251 14.568C44.3931 14.232 44.1491 13.712 44.0931 13.008H45.6771C45.7091 13.24 45.7971 13.416 45.9411 13.536C46.0931 13.656 46.2771 13.716 46.4931 13.716C46.7171 13.716 46.9011 13.656 47.0451 13.536C47.1891 13.416 47.2731 13.24 47.2971 13.008H48.8931C48.8291 13.712 48.5811 14.232 48.1491 14.568C47.7171 14.896 47.1651 15.06 46.4931 15.06ZM44.6331 20.628L48.5811 15.504H50.1411V24H48.1851V18.948L44.2371 24H42.6771V15.504H44.6331V20.628ZM51.0834 17.292V15.504H58.2354V17.292H55.6314V24H53.6754V17.292H51.0834ZM61.1448 20.628L65.0928 15.504H66.6528V24H64.6968V18.948L60.7488 24H59.1888V15.504H61.1448V20.628Z" fill="white"/>
</svg>
