<svg width="22" height="20" viewBox="0 0 22 20" fill="none" xmlns="http://www.w3.org/2000/svg">
<path d="M2.63955 1.60547C2.01228 1.60547 1.41561 1.61049 0.824039 1.60547C0.487455 1.60044 0.237567 1.44464 0.0896743 1.15314C-0.0531188 0.876724 -0.0225203 0.600305 0.161071 0.343988C0.319163 0.112801 0.553752 0.0072595 0.834238 0.00223369C1.6145 0.00223369 2.39986 -0.00279211 3.18012 0.00223369C3.6646 0.0072595 3.95529 0.238447 4.07258 0.705846C4.28677 1.53008 4.49076 2.35934 4.71005 3.21875C4.80695 3.21875 4.90894 3.21875 5.00584 3.21875C10.1056 3.21875 15.2002 3.21875 20.3 3.21875C21.4168 3.21875 22.2175 4.21888 21.9472 5.28436C21.325 7.75203 20.6978 10.2147 20.0705 12.6823C19.8512 13.5468 19.1576 14.0695 18.2448 14.0695C14.5832 14.0695 10.9215 14.0695 7.25993 14.0695C6.30627 14.0695 5.6331 13.5468 5.40362 12.6321C4.73555 9.98851 4.06238 7.34494 3.39431 4.70136C3.13423 3.68112 2.89454 2.65586 2.63955 1.60547Z" fill="#2A79CC"/>
<path d="M9.8914 18.1052C9.8863 19.1506 9.01424 19.9999 7.95349 19.9949C6.89784 19.9899 6.02579 19.1304 6.02579 18.0901C6.02579 17.0347 6.90804 16.1753 7.97899 16.1853C9.03974 16.2004 9.8965 17.0598 9.8914 18.1052Z" fill="#2A79CC"/>
<path d="M17.6481 16.1904C18.7089 16.1954 19.5758 17.0498 19.5758 18.0951C19.5758 19.1506 18.6936 20.01 17.6226 19.9999C16.567 19.9899 15.7051 19.1304 15.7051 18.0851C15.7153 17.0397 16.5925 16.1853 17.6481 16.1904Z" fill="#2A79CC"/>
</svg>
