<svg width="174" height="56" viewBox="0 0 174 56" fill="none" xmlns="http://www.w3.org/2000/svg">
<rect width="174" height="56" rx="4" fill="white"/>
<path d="M68.266 28.996V34H65.332V21.256H68.266V26.332H69.832L73.054 21.256H76.42L72.28 27.34L76.438 34H73.018L69.994 28.996H68.266ZM80.4049 31.894L79.6309 34H76.4629L81.4849 21.256H84.6169L89.5669 34H86.3809L85.6249 31.894H80.4049ZM81.3049 29.266H84.7249C84.4489 28.462 84.1669 27.664 83.8789 26.872C83.6029 26.068 83.3209 25.264 83.0329 24.46L81.3049 29.266ZM88.8048 23.938V21.256H99.5328V23.938H95.6268V34H92.6928V23.938H88.8048ZM102.676 31.894L101.902 34H98.7344L103.756 21.256H106.888L111.838 34H108.652L107.896 31.894H102.676ZM103.576 29.266H106.996C106.72 28.462 106.438 27.664 106.15 26.872C105.874 26.068 105.592 25.264 105.304 24.46L103.576 29.266ZM116.919 23.938L116.901 26.98C116.901 27.412 116.895 27.874 116.883 28.366C116.871 28.846 116.835 29.326 116.775 29.806C116.727 30.286 116.649 30.754 116.541 31.21C116.433 31.654 116.277 32.056 116.073 32.416C115.749 32.992 115.293 33.406 114.705 33.658C114.117 33.898 113.415 34.018 112.599 34.018H112.077V31.336C112.485 31.336 112.803 31.27 113.031 31.138C113.271 30.994 113.457 30.814 113.589 30.598C113.721 30.37 113.817 30.112 113.877 29.824C113.949 29.524 113.997 29.218 114.021 28.906C114.069 28.126 114.099 27.412 114.111 26.764C114.135 26.104 114.147 25.474 114.147 24.874C114.159 24.262 114.165 23.668 114.165 23.092C114.165 22.504 114.171 21.892 114.183 21.256H123.363V34H120.429V23.938H116.919ZM131.753 21.094C132.725 21.094 133.601 21.25 134.381 21.562C135.173 21.862 135.845 22.3 136.397 22.876C136.961 23.44 137.393 24.118 137.693 24.91C137.993 25.702 138.143 26.584 138.143 27.556C138.143 28.516 137.993 29.398 137.693 30.202C137.393 31.006 136.961 31.702 136.397 32.29C135.845 32.878 135.173 33.334 134.381 33.658C133.589 33.982 132.701 34.138 131.717 34.126C130.721 34.126 129.827 33.97 129.035 33.658C128.255 33.334 127.589 32.884 127.037 32.308C126.485 31.732 126.059 31.048 125.759 30.256C125.471 29.452 125.327 28.57 125.327 27.61C125.327 26.638 125.477 25.756 125.777 24.964C126.089 24.16 126.521 23.47 127.073 22.894C127.637 22.318 128.315 21.874 129.107 21.562C129.899 21.25 130.781 21.094 131.753 21.094ZM128.333 27.592C128.333 28.084 128.399 28.558 128.531 29.014C128.675 29.47 128.885 29.878 129.161 30.238C129.449 30.586 129.809 30.868 130.241 31.084C130.673 31.3 131.189 31.414 131.789 31.426C132.365 31.426 132.863 31.318 133.283 31.102C133.703 30.886 134.051 30.598 134.327 30.238C134.603 29.878 134.807 29.47 134.939 29.014C135.071 28.558 135.137 28.096 135.137 27.628C135.137 27.16 135.071 26.698 134.939 26.242C134.819 25.786 134.621 25.378 134.345 25.018C134.069 24.658 133.715 24.364 133.283 24.136C132.863 23.908 132.353 23.794 131.753 23.794C131.165 23.794 130.655 23.902 130.223 24.118C129.791 24.334 129.437 24.622 129.161 24.982C128.885 25.33 128.675 25.732 128.531 26.188C128.399 26.644 128.333 27.112 128.333 27.592ZM140.109 34V21.256H149.127V23.938H143.043V34H140.109Z" fill="#0E192E"/>
<rect x="24" y="30" width="24" height="3" rx="1.5" fill="#091F3A"/>
<rect x="24" y="23" width="24" height="3" rx="1.5" fill="#091F3A"/>
</svg>
