<svg width="21" height="18" viewBox="0 0 21 18" fill="none" xmlns="http://www.w3.org/2000/svg">
<path d="M21 5.43513C20.9719 6.8678 20.5224 8.13647 19.5392 9.15912C16.8283 11.9811 14.1034 14.7885 11.3785 17.6008C10.8588 18.1363 10.1471 18.1314 9.6274 17.596C6.93057 14.803 4.215 12.0293 1.54158 9.21218C0.0807906 7.66856 -0.359318 5.79691 0.296163 3.74196C0.961008 1.66772 2.40775 0.447288 4.49124 0.0806774C6.9493 -0.348643 9.38862 1.19498 10.222 3.65513C10.2267 3.66478 10.2267 3.66961 10.2267 3.67925C10.2735 3.82397 10.3157 3.97833 10.5123 3.97351C10.6949 3.96868 10.737 3.82397 10.7792 3.68408C10.9899 3.03768 11.2942 2.43953 11.7343 1.93303C13.1764 0.27363 14.9789 -0.363115 17.0718 0.201273C19.1834 0.770485 20.4522 2.24658 20.9064 4.45107C20.9719 4.77426 21 5.10228 21 5.43513Z" fill="#2A79CC"/>
</svg>
