<svg width="56" height="56" viewBox="0 0 56 56" fill="none" xmlns="http://www.w3.org/2000/svg">
<rect width="56" height="56" rx="4" fill="white"/>
<path d="M31.5479 36.5532C32.1507 35.9576 32.1507 34.9918 31.5479 34.3961L24.6351 27.565C24.0323 26.9693 23.0549 26.9693 22.4521 27.565C21.8493 28.1607 21.8493 29.1265 22.4521 29.7222L29.3649 36.5532C29.9677 37.1489 30.9451 37.1489 31.5479 36.5532Z" fill="#2A79CC"/>
<path d="M31.5479 20.4468C30.9451 19.8511 29.9677 19.8511 29.3649 20.4468L22.4521 27.2778C21.8493 27.8735 21.8493 28.8393 22.4521 29.435C23.0549 30.0307 24.0323 30.0307 24.6351 29.435L31.5479 22.6039C32.1507 22.0082 32.1507 21.0425 31.5479 20.4468Z" fill="#2A79CC"/>
</svg>
