<svg width="190" height="107" viewBox="0 0 190 107" fill="none" xmlns="http://www.w3.org/2000/svg">
<path fill-rule="evenodd" clip-rule="evenodd" d="M123.282 79.3733H124.352C126.087 79.3733 127.581 79.0441 128.832 78.3857C130.084 77.7272 131.04 76.8031 131.701 75.6133C132.374 74.4119 132.71 72.9968 132.71 71.368C132.71 69.7507 132.374 68.3183 131.701 67.0707C131.04 65.8116 130.084 64.8239 128.832 64.1077C127.581 63.3915 126.087 63.0334 124.352 63.0334H115.568V67.6574L123.282 79.3733ZM120.739 67.244V75.1627H124.352C125.084 75.1627 125.68 75.001 126.14 74.6776C126.613 74.3541 126.955 73.9094 127.168 73.3433C127.38 72.7657 127.486 72.1189 127.486 71.4026C127.486 70.6749 127.374 69.9991 127.15 69.3753C126.937 68.74 126.601 68.2259 126.14 67.8332C125.692 67.4404 125.096 67.244 124.352 67.244H120.739Z" fill="#2A79CC"/>
<path d="M150.138 88.2797V84.0864H140.54V77.346H148.632V73.274H140.54V67.2613H150.102V63.0507H135.351V88.2797H150.138Z" fill="#2A79CC"/>
<path d="M165.456 79.8758H170.609C170.538 81.7703 170.149 83.3702 169.44 84.6756C168.732 85.9694 167.722 86.9513 166.412 87.6213C165.113 88.2913 163.543 88.6263 161.701 88.6263C160.273 88.6263 159.004 88.3952 157.894 87.9332C156.784 87.4595 155.84 86.7664 155.061 85.8538C154.282 84.9413 153.691 83.815 153.29 82.475C152.9 81.1234 152.705 79.5697 152.705 77.8139V73.5339C152.705 71.7781 152.912 70.2244 153.325 68.8728C153.75 67.5213 154.352 66.3892 155.132 65.4766C155.923 64.5525 156.873 63.8594 157.983 63.3973C159.104 62.9237 160.367 62.6869 161.772 62.6869C163.649 62.6869 165.22 63.0334 166.483 63.7265C167.746 64.4196 168.72 65.4304 169.405 66.7589C170.101 68.0757 170.52 69.6872 170.662 71.5932H165.491C165.456 70.3919 165.314 69.4504 165.066 68.7689C164.83 68.0758 164.452 67.5906 163.933 67.3133C163.413 67.0245 162.693 66.8801 161.772 66.8801C161.088 66.8801 160.497 67.0014 160.001 67.244C159.506 67.4751 159.098 67.8505 158.78 68.3703C158.461 68.8901 158.225 69.5717 158.071 70.415C157.93 71.2582 157.859 72.2863 157.859 73.4993V77.8139C157.859 79.0037 157.924 80.0202 158.053 80.8635C158.183 81.6952 158.39 82.3768 158.673 82.9082C158.957 83.4395 159.34 83.8265 159.824 84.0691C160.32 84.3117 160.946 84.433 161.701 84.433C162.575 84.433 163.278 84.3059 163.809 84.0518C164.352 83.7976 164.753 83.3413 165.013 82.6829C165.273 82.0244 165.42 81.0888 165.456 79.8758Z" fill="#2A79CC"/>
<path d="M183.589 88.2797V67.2613H190V63.0507H172.15V67.2613H178.436V88.2797H183.589Z" fill="#2A79CC"/>
<path d="M82.5771 84.0691V77.2594H86.1011C86.7622 77.2594 87.2876 77.4038 87.6772 77.6926C88.0668 77.9698 88.3442 78.3741 88.5095 78.9055C88.6866 79.4369 88.7751 80.0607 88.7751 80.7769C88.7751 81.4122 88.6807 81.9782 88.4918 82.475C88.3029 82.9601 87.9959 83.3471 87.5709 83.6359C87.1459 83.9247 86.5911 84.0691 85.9063 84.0691H82.5771Z" fill="#2A79CC"/>
<path d="M87.022 73.2394C86.5733 73.4704 85.9949 73.5859 85.2865 73.5859H82.5771V67.244H85.3396C86.0598 67.244 86.6442 67.3538 87.0928 67.5732C87.5414 67.7927 87.8661 68.1393 88.0668 68.6129C88.2675 69.075 88.3678 69.693 88.3678 70.4669C88.3678 71.137 88.2557 71.7088 88.0314 72.1824C87.8189 72.6444 87.4824 72.9968 87.022 73.2394Z" fill="#2A79CC"/>
<path fill-rule="evenodd" clip-rule="evenodd" d="M21.0438 107L81.3694 15.4868L115.568 67.3663V88.2624H120.739V79.3733H123.483L141.695 107H21.0438ZM62.4069 77.7619H68.7218C68.69 78.5515 68.6274 79.2735 68.5341 79.9278C68.3924 80.9097 68.1681 81.7357 67.8611 82.4057C67.5542 83.0757 67.141 83.5839 66.6215 83.9305C66.1139 84.2655 65.4882 84.433 64.7444 84.433C63.8944 84.433 63.2038 84.2655 62.6725 83.9305C62.1412 83.5839 61.7457 83.0699 61.486 82.3883C61.2263 81.7068 61.0669 80.8635 61.0079 79.8585H55.8546C55.9491 81.5682 56.3505 83.0872 57.0588 84.4157C57.779 85.7326 58.7825 86.7664 60.0693 87.5173C61.3561 88.2566 62.9145 88.6263 64.7444 88.6263C66.1729 88.6263 67.4479 88.349 68.5695 87.7945C69.7028 87.2285 70.665 86.4199 71.456 85.3687C72.2588 84.3059 72.8668 83.0294 73.28 81.5393C73.6932 80.0376 73.8998 78.351 73.8998 76.4796V74.8508C73.8998 72.9795 73.6873 71.2987 73.2623 69.8085C72.8373 68.3068 72.2175 67.0303 71.4029 65.9791C70.5883 64.9164 69.6143 64.102 68.4809 63.5359C67.3476 62.9699 66.0844 62.6869 64.6913 62.6869C62.8142 62.6869 61.244 63.0739 59.9808 63.8478C58.7294 64.6102 57.7554 65.6614 57.0588 67.0014C56.3741 68.3414 55.9609 69.872 55.8192 71.5932H60.9902C61.0256 70.5998 61.1614 69.7565 61.3975 69.0634C61.6454 68.3588 62.0291 67.8216 62.5485 67.452C63.0798 67.0823 63.7999 66.8975 64.709 66.8975C65.2521 66.8975 65.742 67.0014 66.1788 67.2094C66.6156 67.4173 66.9934 67.7292 67.3122 68.1451C67.6427 68.5609 67.9084 69.0865 68.1091 69.7219C68.3216 70.3457 68.4809 71.085 68.5872 71.9398C68.6498 72.4368 68.694 72.974 68.7197 73.5513H62.4069V77.7619ZM90.9179 74.9548C90.7442 75.0621 90.5602 75.1603 90.3658 75.2495C90.8403 75.3801 91.2604 75.5706 91.6262 75.8212C92.4526 76.3757 93.0429 77.1034 93.3971 78.0045C93.7631 78.8939 93.9461 79.8412 93.9461 80.8462C93.9461 82.4634 93.6332 83.8265 93.0075 84.9355C92.3936 86.0329 91.4905 86.8646 90.2981 87.4306C89.1057 87.9851 87.6418 88.2624 85.9063 88.2624H77.3884V63.0334H85.3396C86.6265 63.0334 87.7775 63.172 88.7928 63.4493C89.8081 63.7265 90.67 64.1482 91.3783 64.7142C92.0867 65.2802 92.6238 65.9964 92.9898 66.8628C93.3676 67.7292 93.5565 68.7515 93.5565 69.9298C93.5565 70.9695 93.344 71.9282 92.919 72.8062C92.4939 73.6841 91.8269 74.4003 90.9179 74.9548ZM112.54 88.2624V84.0691H102.942V77.3287H111.035V73.2567H102.942V67.244H114.322L111.638 63.0507L102.942 63.0361V63.0334H97.7534V88.2624H112.54Z" fill="#2A79CC"/>
<path d="M0 107L70.146 0L77.1606 9.85526L12.6263 107H0Z" fill="#2A79CC"/>
</svg>
