<svg width="100" height="23" viewBox="0 0 100 23" fill="none" xmlns="http://www.w3.org/2000/svg">
<g clip-path="url(#clip0_873_4020)">
<path fill-rule="evenodd" clip-rule="evenodd" d="M37.7861 22.4773H37.0703L37.1571 22.2363L37.7861 22.4773ZM47.6226 5.93359L53.5792 22.4773H49.1693L48.1516 19.505H42.9175L43.9891 16.4139H47.1339L45.6153 11.7234L47.6226 5.93359Z" fill="#878C9E"/>
<path d="M9.40972 5.84766C11.1134 5.84766 12.4062 6.31134 13.2882 7.2387C14.1702 8.16599 14.6112 9.52536 14.6112 11.3166V17.0234C14.6112 18.8146 14.1702 20.174 13.2882 21.1013C12.4062 22.0286 11.1134 22.4923 9.40972 22.4923H0.589844V5.84766H9.40972ZM39.8508 5.85948L38.5692 9.59771H36.1115L38.7187 17.4989L42.5633 5.84766H46.9732L40.9802 22.4923H36.4572L30.4643 5.84766C33.5991 5.84766 36.7149 5.85948 39.8508 5.85948ZM10.5405 11.3166C10.5405 9.88994 9.86203 9.17661 8.50509 9.17661H4.66059V19.1633H8.50509C9.86203 19.1633 10.5405 18.45 10.5405 17.0234V11.3166ZM29.8311 22.4923H17.2797V5.84766H29.8311V9.17661H21.3505V12.3866H28.0218V15.7156H21.3505V19.1633H29.8311V22.4923Z" fill="#2A79CC"/>
<path d="M55.0938 5.84713H64.5921C66.1751 5.84713 67.3247 6.22361 68.0409 6.97656C68.757 7.72958 69.1151 8.93826 69.1151 10.6027V12.7428C69.1151 14.0585 68.9078 15.081 68.4932 15.8101C68.0786 16.5393 67.4189 17.0228 66.5144 17.2606L69.3413 22.4918H64.9313L62.3306 17.4984H59.1645V22.4918H55.0938V5.84713ZM65.0444 10.6027C65.0444 9.65159 64.5921 9.17608 63.6875 9.17608H59.1645V14.1694H63.6875C64.5921 14.1694 65.0444 13.6939 65.0444 12.7428V10.6027ZM79.0657 22.4918H74.995V9.17608H70.2458V5.84713H83.8148V9.17608H79.0657V22.4918ZM95.5746 10.365C95.5746 9.41384 95.1224 8.93826 94.2177 8.93826H90.3732C89.4686 8.93826 89.0163 9.41384 89.0163 10.365V17.9739C89.0163 18.9251 89.4686 19.4006 90.3732 19.4006H94.2177C95.1224 19.4006 95.5746 18.9251 95.5746 17.9739V10.365ZM99.6454 17.9739C99.6454 19.6384 99.2872 20.8471 98.5711 21.6001C97.855 22.353 96.7054 22.7295 95.1224 22.7295H89.4686C87.8856 22.7295 86.7359 22.353 86.0198 21.6001C85.3037 20.8471 84.9456 19.6384 84.9456 17.9739V10.365C84.9456 8.70051 85.3037 7.49176 86.0198 6.73881C86.7359 5.98585 87.8856 5.60938 89.4686 5.60938H95.1224C96.7054 5.60938 97.855 5.98585 98.5711 6.73881C99.2872 7.49176 99.6454 8.70051 99.6454 10.365V17.9739Z" fill="#878C9E"/>
<path fill-rule="evenodd" clip-rule="evenodd" d="M48.8102 0.53125L47.4925 3.8562H0.570312V0.53125H48.8102Z" fill="#2A79CC"/>
<path fill-rule="evenodd" clip-rule="evenodd" d="M99.4445 3.8562H48.2227L49.5403 0.53125H99.4445V3.8562Z" fill="#878C9E"/>
</g>
<defs>
<clipPath id="clip0_873_4020">
<rect width="100" height="23" fill="white"/>
</clipPath>
</defs>
</svg>
