<svg width="14" height="13" viewBox="0 0 14 13" fill="none" xmlns="http://www.w3.org/2000/svg">
<path d="M2.46729e-05 3.21478C0.0125152 2.31304 0.418458 1.35264 1.23659 0.558985C1.91732 -0.0987875 2.9072 -0.120405 3.64414 0.206938C3.95328 0.345904 4.15313 0.586778 4.28428 0.895591C4.58405 1.59969 4.84948 2.32231 5.19609 3.00479C5.52397 3.64712 5.35222 4.1721 4.95565 4.68782C4.84011 4.83914 4.70896 4.9781 4.58718 5.12633C4.41543 5.33324 4.40294 5.52162 4.55283 5.74705C5.4459 7.10583 6.62001 8.13726 8.13137 8.78268C8.43427 8.91239 8.60913 8.87224 8.81523 8.6221C9.07441 8.30711 9.33046 7.98903 9.59276 7.67713C9.85194 7.36523 10.1861 7.2695 10.5733 7.36523C11.0448 7.48258 11.4663 7.72654 11.9035 7.92727C12.3938 8.15271 12.8778 8.38432 13.3649 8.61592C13.8833 8.85989 14.0456 9.15017 13.9894 9.82956C13.8989 10.895 13.4492 11.7813 12.5999 12.4576C11.9691 12.9609 11.2478 13.0814 10.4671 12.9517C9.45537 12.7849 8.50921 12.4112 7.5568 12.0592C5.83623 11.423 4.40919 10.3638 3.13827 9.07915C2.22022 8.14962 1.38648 7.15215 0.740089 6.01263C0.29043 5.21589 -0.00309796 4.36974 2.46729e-05 3.21478Z" fill="#2A79CC"/>
</svg>
