<svg width="56" height="56" viewBox="0 0 56 56" fill="none" xmlns="http://www.w3.org/2000/svg">
<rect width="56" height="56" rx="4" fill="white"/>
<path d="M24.4521 36.5532C23.8493 35.9576 23.8493 34.9918 24.4521 34.3961L31.3649 27.565C31.9677 26.9693 32.9451 26.9693 33.5479 27.565C34.1507 28.1607 34.1507 29.1265 33.5479 29.7222L26.6351 36.5532C26.0323 37.1489 25.0549 37.1489 24.4521 36.5532Z" fill="#2A79CC"/>
<path d="M24.4521 20.4468C25.0549 19.8511 26.0323 19.8511 26.6351 20.4468L33.5479 27.2778C34.1507 27.8735 34.1507 28.8393 33.5479 29.435C32.9451 30.0307 31.9677 30.0307 31.3649 29.435L24.4521 22.6039C23.8493 22.0082 23.8493 21.0425 24.4521 20.4468Z" fill="#2A79CC"/>
</svg>
