<svg width="24" height="24" viewBox="0 0 24 24" fill="none" xmlns="http://www.w3.org/2000/svg">
<path d="M11.986 22C9.8678 22 7.75476 22 5.63652 22C3.51307 22 1.86323 20.2863 2.00896 18.1715C2.09744 16.8432 2.77403 15.8431 3.95025 15.2233C5.40231 14.4628 6.95326 13.9783 8.56667 13.7127C9.26928 13.5981 9.64921 13.0355 9.43582 12.4313C9.35776 12.2073 9.20162 12.051 9.01426 11.9208C7.6871 11.0197 6.91163 9.76956 6.6462 8.19127C6.1882 5.42536 8.17112 2.61257 10.9399 2.09689C14.0158 1.52391 16.9095 3.55016 17.3311 6.64424C17.6278 8.84759 16.8002 10.6134 14.9891 11.9104C14.5571 12.2229 14.3957 12.6084 14.5467 13.0459C14.6872 13.4522 14.9943 13.6398 15.4002 13.7075C17.0032 13.9575 18.5281 14.4523 19.9802 15.1816C21.3386 15.8639 22.1609 17.3641 21.9735 18.7757C21.7549 20.3905 20.688 21.5729 19.1423 21.9167C18.882 21.974 18.6114 21.9948 18.3408 21.9948C16.2173 22 14.0991 22 11.986 22Z" fill="#2A79CC"/>
</svg>
